<?xml version="1.0" encoding="UTF-8"?>
<svg version="1.1" xmlns="http://www.w3.org/2000/svg" width="1920" height="768">
<path d="M0 0 C1.11922852 0.19867676 2.23845703 0.39735352 3.39160156 0.60205078 C56.09888559 10.10302623 106.08237552 32.16392721 147 67 C148.03687604 67.85263911 149.07468308 68.70414695 150.11328125 69.5546875 C164.32868149 81.31894123 177.72220892 94.37907385 189 109 C189.90907586 110.10070973 190.82211904 111.19815021 191.73828125 112.29296875 C203.93525349 126.97384116 214.0773795 143.14807241 223 160 C223.33306152 160.6276123 223.66612305 161.25522461 224.00927734 161.90185547 C262.99385368 236.05420354 268.6869549 321.98210613 244.18066406 401.6640625 C232.8551049 437.48443565 214.37558416 471.57474923 190.30224609 500.4375 C188.97476559 502.03027751 187.66932021 503.63961802 186.36328125 505.25 C174.40586777 519.77894581 160.92827421 533.53018228 146 545 C144.90044321 545.90759221 143.80432465 546.81935954 142.7109375 547.734375 C93.9796588 588.23294041 27.59877513 613.72502851 -35.921875 614.23828125 C-36.9322583 614.24812042 -37.9426416 614.25795959 -38.98364258 614.26809692 C-128.24728822 614.95783038 -206.25998669 584.48809793 -270.5703125 522.5234375 C-275.2858578 517.8718318 -279.74992373 513.07916312 -284 508 C-284.68835938 507.18233154 -284.68835938 507.18233154 -285.390625 506.34814453 C-340.47942549 440.66935682 -364.48900629 357.92389991 -357.50337219 272.86712646 C-356.75165904 264.84231002 -355.50431276 256.91663584 -354 249 C-353.70246826 247.38424072 -353.70246826 247.38424072 -353.39892578 245.73583984 C-345.77504448 205.68771871 -329.71902268 165.22527146 -306 132 C-305.20104293 130.85340769 -304.40291081 129.70624025 -303.60546875 128.55859375 C-296.40168179 118.2583077 -288.58216219 108.6189744 -280.109375 99.328125 C-278.24324433 97.26846967 -276.42930212 95.17611105 -274.625 93.0625 C-267.70078664 85.12616264 -260.09037565 77.73755874 -252 71 C-251.21061035 70.33194336 -251.21061035 70.33194336 -250.40527344 69.65039062 C-182.64056942 12.43344229 -88.08915869 -16.46678428 0 0 Z M-229 64 C-227.37502904 69.52076515 -224.89869734 74.45695518 -222.31098938 79.57142639 C-221.83079934 80.52857636 -221.3506093 81.48572634 -220.85586804 82.47188085 C-219.24663385 85.67725699 -217.63170294 88.87972892 -216.0168457 92.08227539 C-214.86184934 94.38024418 -213.70724679 96.67841094 -212.55300903 98.97676086 C-210.06760187 103.92477214 -207.57957205 108.87145709 -205.09005165 113.81739998 C-201.15623208 121.63341576 -197.23120818 129.45383192 -193.30766296 137.27500916 C-191.96465731 139.95189553 -190.62160456 142.62875829 -189.27854443 145.30561733 C-188.94294928 145.97450236 -188.60735414 146.64338739 -188.26158944 147.33254166 C-184.44452285 154.94021756 -180.62589384 162.54710868 -176.80639648 170.15356445 C-176.45736325 170.84866375 -176.10833001 171.54376304 -175.74872001 172.25992595 C-170.08596734 183.53666226 -164.41568149 194.80959748 -158.74334345 206.08151454 C-152.91914235 217.65584326 -147.10564653 229.23550638 -141.30142659 240.81986803 C-137.72091679 247.96505506 -134.13169013 255.10572641 -130.53120997 262.24087178 C-127.77569408 267.70359257 -125.03476977 273.17351298 -122.29927444 278.6462841 C-121.17337187 280.8929546 -120.04263273 283.13720855 -118.90680122 285.37887573 C-117.36094018 288.43148529 -115.83242736 291.49217213 -114.30805969 294.55555725 C-113.85127014 295.44738223 -113.39448059 296.3392072 -112.92384893 297.25805718 C-112.31734967 298.4901116 -112.31734967 298.4901116 -111.69859791 299.74705601 C-111.3438841 300.45274143 -110.9891703 301.15842685 -110.62370759 301.88549668 C-109.39465976 306.05223403 -111.09801567 309.57125437 -112.96869087 313.29535198 C-113.58916351 314.54155678 -113.58916351 314.54155678 -114.22217095 315.81293744 C-114.67907213 316.71527279 -115.1359733 317.61760814 -115.60671997 318.54728699 C-116.09013914 319.51386634 -116.57355831 320.48044569 -117.07162654 321.47631532 C-118.69588723 324.72040513 -120.32868549 327.96012186 -121.96142578 331.19995117 C-123.12628041 333.52226755 -124.29058394 335.84486041 -125.45437622 338.16770935 C-127.96235074 343.17159186 -130.47453269 348.17334312 -132.98941422 353.17375755 C-136.62601559 360.40488411 -140.25446768 367.64007618 -143.88062941 374.87644247 C-149.76484401 386.61879667 -155.65324535 398.3590453 -161.54541016 410.09741211 C-161.89799951 410.79984507 -162.25058886 411.50227802 -162.61386274 412.22599683 C-166.55071649 420.06886114 -170.48836083 427.91132824 -174.42663574 435.753479 C-175.85622088 438.60020983 -177.28578646 441.44695048 -178.71533203 444.29370117 C-179.24448427 445.34743097 -179.24448427 445.34743097 -179.78432645 446.42244824 C-185.65822334 458.11990166 -191.52593163 469.82044759 -197.38887012 481.52339727 C-201.00747082 488.74575623 -204.63151738 495.96533242 -208.26253198 503.18145857 C-211.04013217 508.70259423 -213.8096048 514.22776855 -216.57603073 519.75451088 C-217.71532611 522.02718217 -218.85739823 524.29846379 -220.00236511 526.56828308 C-221.55798914 529.65313478 -223.10384716 532.74268297 -224.64724731 535.83366394 C-225.10860994 536.74269146 -225.56997256 537.65171897 -226.04531586 538.58829278 C-226.45374879 539.41127274 -226.86218172 540.23425269 -227.28299141 541.08217144 C-227.64128505 541.79561362 -227.99957869 542.5090558 -228.36872971 543.24411744 C-228.57704891 543.82355868 -228.7853681 544.40299993 -229 545 C-228.67 545.66 -228.34 546.32 -228 547 C-148.47 467.47 -68.94 387.94 13 306 C7.92764464 300.07783901 7.92764464 300.07783901 2.59442425 294.46858311 C1.7644967 293.63604781 0.93456914 292.80351251 0.07949227 291.94574887 C-0.81672141 291.05176591 -1.71293509 290.15778295 -2.63630676 289.23670959 C-3.61031161 288.26155095 -4.58409862 287.28617468 -5.55768794 286.31060117 C-8.21933101 283.64480078 -10.88406291 280.98210722 -13.54933727 278.31993806 C-16.42837656 275.44316716 -19.30452968 272.5635131 -22.18106079 269.68423462 C-27.80930427 264.05155088 -33.44024004 258.4215661 -39.07215474 252.79255331 C-43.64668602 248.22028156 -48.22023892 243.6470333 -52.79309654 239.07308769 C-53.76975889 238.0961955 -53.76975889 238.0961955 -54.76615178 237.09956811 C-56.08883408 235.77656608 -57.41151414 234.45356181 -58.73419198 233.13055532 C-71.12678418 220.73511379 -83.52243604 208.34273563 -95.9191406 195.95140707 C-106.56559083 185.30943069 -117.20940761 174.66482631 -127.85131836 164.01831055 C-140.2080014 151.65628297 -152.56629589 139.29587007 -164.92718905 126.93805212 C-166.24345556 125.62210416 -167.55971998 124.30615412 -168.87598228 122.99020195 C-169.52363756 122.34270095 -170.17129283 121.69519995 -170.83857403 121.02807771 C-175.41217999 116.45533679 -179.98462122 111.88143318 -184.55661964 107.30708504 C-190.12029558 101.74061253 -195.6857333 96.17590886 -201.25347874 90.61350668 C-204.09635573 87.77326768 -206.93840902 84.93221677 -209.77832222 82.08901405 C-212.37337301 79.49100268 -214.97068587 76.89527621 -217.56989177 74.30142205 C-218.96433801 72.90863751 -220.35630568 71.51337285 -221.7482093 70.1180473 C-222.56509811 69.30376623 -223.38198693 68.48948516 -224.22362995 67.65052891 C-224.93387202 66.9404492 -225.64411408 66.23036948 -226.37587863 65.4987722 C-227.75415001 63.88697029 -227.75415001 63.88697029 -229 64 Z " fill="#FFFFFF" transform="translate(438,78)"/>
<path d="M0 0 C18.81 0 37.62 0 57 0 C59.97 8.3325 62.94 16.665 66 25.25 C71.25851404 39.99587268 76.52287093 54.73877611 81.890625 69.4453125 C82.26513794 70.47168823 82.63965088 71.49806396 83.0255127 72.55554199 C84.78646476 77.37785048 86.55239893 82.19827597 88.32421875 87.01660156 C88.950566 88.727197 89.57687073 90.43780802 90.203125 92.1484375 C90.48963928 92.92285187 90.77615356 93.69726624 91.0713501 94.49514771 C93 99.77383296 93 99.77383296 93 102 C93.66 102 94.32 102 95 102 C95.08362793 101.24050049 95.16725586 100.48100098 95.25341797 99.69848633 C96.29512815 94.53796718 98.1244694 89.75591306 99.9453125 84.82421875 C100.54891098 83.17019547 100.54891098 83.17019547 101.16470337 81.48275757 C102.47986965 77.8825123 103.8023755 74.28501125 105.125 70.6875 C106.03074711 68.21233148 106.93601746 65.73698846 107.84082031 63.26147461 C109.6719109 58.25430332 111.50596164 53.2482394 113.34277344 48.24316406 C116.11623092 40.68568679 118.88043404 33.12484747 121.64266968 25.56326294 C124.75664097 17.04028148 127.87896874 8.52041533 131 0 C149.81 0 168.62 0 188 0 C188 58.41 188 116.82 188 177 C175.13 177 162.26 177 149 177 C149 134.43 149 91.86 149 48 C148.34 48 147.68 48 147 48 C146.87189941 48.55260498 146.74379883 49.10520996 146.61181641 49.67456055 C144.01507492 59.9946619 140.09956578 69.8609387 136.375 79.8125 C135.62516509 81.82631652 134.87582445 83.84031714 134.12695312 85.85449219 C132.56007266 90.06789473 130.99103573 94.28048594 129.42089844 98.49267578 C126.97827427 105.05143673 124.55346454 111.61669667 122.1328125 118.18359375 C121.54601212 119.77497917 121.54601212 119.77497917 120.94735718 121.39851379 C119.42151818 125.536872 117.89588337 129.67530499 116.37127686 133.81411743 C115.3215197 136.66293834 114.27030751 139.51121824 113.21875 142.359375 C112.90600128 143.20926498 112.59325256 144.05915497 112.27102661 144.93479919 C110.1139589 150.77208221 110.1139589 150.77208221 109 153 C99.1 153 89.2 153 79 153 C75.62331994 144.89596786 72.38394727 136.82598821 69.375 128.58984375 C68.94678955 127.42465714 68.5185791 126.25947052 68.07739258 125.05897522 C66.71582136 121.35270717 65.3577395 117.64517324 64 113.9375 C56.05245825 92.27186117 48.03532151 70.63355791 40 49 C39.67 91.24 39.34 133.48 39 177 C26.13 177 13.26 177 0 177 C0 118.59 0 60.18 0 0 Z " fill="#FFFFFF" transform="translate(1062,118)"/>
<path d="M0 0 C1.61829257 1.35834636 3.22327152 2.73276132 4.8125 4.125 C5.48925781 4.70636719 6.16601562 5.28773438 6.86328125 5.88671875 C22.88891778 20.69196612 31.90521835 43.21598682 32.9387207 64.75561523 C33.65890212 91.33373885 29.43142904 115.74703902 11.4375 136.375 C9.91556534 137.97730941 8.37383069 139.56105402 6.8125 141.125 C6.05324219 141.89585937 5.29398438 142.66671875 4.51171875 143.4609375 C-13.97980467 161.19585194 -37.44510052 165.79333119 -62.3203125 165.375 C-85.73586283 164.62570239 -106.87142894 154.28443357 -122.875 137.375 C-135.84200234 122.38987744 -144.43748793 102.09407128 -145.1875 82.125 C-145.2390625 80.91972656 -145.290625 79.71445312 -145.34375 78.47265625 C-146.08006129 52.78695398 -139.34575571 28.70636815 -122.1875 9.125 C-121.59453125 8.43664062 -121.0015625 7.74828125 -120.390625 7.0390625 C-90.53874477 -25.23668835 -33.68484395 -26.23926106 0 0 Z M-83.1875 26.125 C-83.82300781 26.56585938 -84.45851563 27.00671875 -85.11328125 27.4609375 C-95.61466516 35.51743158 -101.10800592 49.39194624 -103.1875 62.125 C-104.28763513 75.14587653 -103.80851136 87.8175539 -99.1875 100.125 C-98.84847656 101.03121094 -98.50945312 101.93742187 -98.16015625 102.87109375 C-93.02653556 114.58159505 -83.39463735 123.42519941 -71.640625 128.1484375 C-59.69622344 132.00033031 -46.92661146 131.35885524 -35.671875 125.90625 C-22.29154515 118.51833781 -14.90743121 107.34550918 -10.515625 92.98828125 C-8.87936888 86.70325281 -8.7439255 80.65255119 -8.8125 74.1875 C-8.80089844 73.09759766 -8.78929687 72.00769531 -8.77734375 70.88476562 C-8.83521165 54.65281951 -13.95753717 40.41059379 -25.28125 28.609375 C-34.26436847 20.9302576 -46.04902786 16.47074944 -57.93359375 16.87890625 C-67.51012848 17.92452443 -75.35899338 20.49955984 -83.1875 26.125 Z " fill="#FFFFFF" transform="translate(1671.1875,353.875)"/>
<path d="M0 0 C18.25871464 15.11558693 28.44436432 36.44502763 31.6875 59.6875 C31.80234152 61.20627908 31.88033412 62.72795843 31.9375 64.25 C31.9890625 65.45527344 32.040625 66.66054688 32.09375 67.90234375 C32.82399225 93.48809304 26.21662559 117.7900139 8.9375 137.25 C8.34582031 137.93578125 7.75414062 138.6215625 7.14453125 139.328125 C1.32356378 145.6331388 -5.75120746 149.88918173 -13.0625 154.25 C-13.74957031 154.6728125 -14.43664063 155.095625 -15.14453125 155.53125 C-33.95827138 166.06354696 -60.17214926 167.17881116 -80.69140625 162.21484375 C-81.80386719 161.89644531 -82.91632813 161.57804688 -84.0625 161.25 C-85.80853516 160.75693359 -85.80853516 160.75693359 -87.58984375 160.25390625 C-108.40643466 153.60639821 -125.6585788 138.10117956 -136.11914062 119.08007812 C-148.39435644 95.26666773 -149.76503382 65.48859852 -141.80859375 40.10546875 C-134.83091306 19.4122768 -120.47498215 1.40585751 -101.25 -9.1875 C-68.51288238 -25.23510668 -28.9744827 -22.13081654 0 0 Z M-90.03125 29.99609375 C-102.21053668 43.51041763 -105.69189268 61.15597187 -104.9375 78.875 C-103.37442514 96.10517403 -97.10817592 109.76777453 -83.9375 121.07421875 C-74.00463816 128.32301682 -62.13933459 130.57534131 -50.0625 129.25 C-38.47209196 126.91882189 -28.50720617 121.55588271 -21.0625 112.25 C-10.40559237 96.05969803 -7.44722619 76.60235155 -10.74609375 57.6328125 C-13.74071538 43.56731521 -20.37614042 31.49522837 -32.4375 23.4375 C-51.49401755 12.08633148 -73.90868252 14.60371501 -90.03125 29.99609375 Z " fill="#FFFFFF" transform="translate(1476.0625,354.75)"/>
<path d="M0 0 C13.2 0 26.4 0 40 0 C40 22.77 40 45.54 40 69 C61.45 69 82.9 69 105 69 C105 46.23 105 23.46 105 0 C118.2 0 131.4 0 145 0 C145 58.08 145 116.16 145 176 C131.8 176 118.6 176 105 176 C105 152.24 105 128.48 105 104 C83.55 104 62.1 104 40 104 C40 127.76 40 151.52 40 176 C26.8 176 13.6 176 0 176 C0 117.92 0 59.84 0 0 Z " fill="#FFFFFF" transform="translate(1157,340)"/>
<path d="M0 0 C0.59627197 0.32838867 1.19254395 0.65677734 1.80688477 0.99511719 C5.17241266 2.93376971 7.22564441 4.7839755 9.4375 7.9375 C7.25956935 11.55437271 5.07219794 15.16531037 2.8762207 18.77124023 C2.13179095 19.99657193 1.38988122 21.22343855 0.65063477 22.4519043 C-0.41758367 24.22602568 -1.49499766 25.99427427 -2.57421875 27.76171875 C-3.21834717 28.82479248 -3.86247559 29.88786621 -4.52612305 30.9831543 C-6.61102573 34.00790041 -8.88977132 36.42712386 -11.5625 38.9375 C-12.36429688 38.35742188 -13.16609375 37.77734375 -13.9921875 37.1796875 C-28.92715917 26.77695335 -45.30147809 21.81154013 -63.5625 22.9375 C-69.61794158 24.03613012 -73.63769506 26.03149383 -77.5625 30.9375 C-79.0295779 35.33873369 -79.19774203 39.15882231 -77.625 43.5625 C-69.53871637 52.87397812 -54.10337523 55.22572846 -42.70288086 58.4765625 C-21.94975881 64.41386244 -0.4977652 70.86093974 11.80078125 90.06640625 C18.10558663 101.78188098 18.40161907 117.29918701 14.875 129.9375 C9.41253092 144.93549872 -0.50632868 154.70585802 -14.8359375 161.43359375 C-39.54481919 171.85008309 -69.96580829 169.95331811 -94.63671875 160.40234375 C-104.92203247 156.21099315 -113.70479677 150.64286413 -122.5625 143.9375 C-120.33906585 137.91666147 -116.98648769 132.53362408 -113.74047852 127.0246582 C-112.62171949 125.11941329 -111.51891722 123.20547245 -110.41601562 121.29101562 C-109.70669551 120.08276551 -108.99644172 118.87506292 -108.28515625 117.66796875 C-107.32234741 116.01897583 -107.32234741 116.01897583 -106.34008789 114.33666992 C-105.75348389 113.54494385 -105.16687988 112.75321777 -104.5625 111.9375 C-100.58353667 111.9375 -98.51341253 113.87096599 -95.375 116.0625 C-79.21376022 126.84514678 -57.91502919 132.88736801 -38.57421875 129.3984375 C-33.02645026 127.90259474 -28.77944896 125.89343194 -25.25 121.1875 C-23.76920237 116.3412532 -23.96690747 112.42648132 -25.8125 107.8125 C-33.99981705 99.25303218 -47.27399129 96.65533862 -58.3125 93.5 C-79.2916002 87.49619987 -102.32523708 80.61109302 -113.9375 60.5 C-120.01851073 48.40407649 -120.43311228 33.77521325 -116.6640625 20.8125 C-111.23717122 6.64869865 -101.92745711 -2.64031085 -88.48291016 -9.22119141 C-60.38054999 -21.53249742 -25.77940931 -14.36590453 0 0 Z " fill="#FFFFFF" transform="translate(943.5625,351.0625)"/>
<path d="M0 0 C1.69841083 1.29265472 3.38012945 2.61018888 5 4 C4.3765129 7.04660395 3.37724174 9.30359139 1.7421875 11.94140625 C1.05539917 13.05733154 1.05539917 13.05733154 0.35473633 14.19580078 C-0.37773315 15.36731689 -0.37773315 15.36731689 -1.125 16.5625 C-1.86617065 17.76108643 -1.86617065 17.76108643 -2.62231445 18.98388672 C-6.36391642 25.02140245 -10.14840176 31.03199453 -14 37 C-14.94875 36.46375 -15.8975 35.9275 -16.875 35.375 C-17.52210937 35.01019531 -18.16921875 34.64539063 -18.8359375 34.26953125 C-20.30188935 33.40954145 -21.74481757 32.50928084 -23.1640625 31.57421875 C-34.2162668 24.42170527 -46.69280402 20.83667016 -59.8125 20.75 C-60.58142578 20.729375 -61.35035156 20.70875 -62.14257812 20.6875 C-69.08808952 20.64061047 -74.58238497 21.93495383 -80 26.5625 C-82.59254396 31.01843493 -83.16076924 34.94865246 -82 40 C-75.21241321 49.95953141 -61.14653601 52.33988217 -50.087677 55.26834106 C-28.24562045 61.09236213 -4.69522964 67.50408709 8 88 C14.57618904 102.0726611 14.3801468 116.53887749 9.69335938 131.1328125 C4.86789754 144.12757734 -5.86716398 153.0544912 -18 159 C-43.26516611 170.02140333 -73.69905113 167.39466256 -98.97290039 157.97680664 C-108.80948758 154.08914225 -117.85466492 148.75727236 -126 142 C-125.43535523 137.49391334 -123.54835109 134.17001226 -121.18359375 130.38671875 C-120.80767593 129.77230423 -120.43175812 129.15788971 -120.04444885 128.52485657 C-118.84908235 126.57469818 -117.64349777 124.63109785 -116.4375 122.6875 C-115.62236277 121.3617485 -114.80790206 120.03558079 -113.99414062 118.70898438 C-112.00389485 115.4677846 -110.00446418 112.23242421 -108 109 C-104.60085677 110.31571826 -101.78501291 111.69883697 -98.8125 113.8125 C-83.49417093 124.18454819 -63.49767691 130.52058786 -44.92578125 127.5 C-38.69076141 126.15022941 -34.32103276 124.77587831 -30 120 C-27.71687978 116.32715443 -27.71141892 113.07918017 -28.4140625 108.91796875 C-29.65957715 104.84098413 -32.46726765 102.88556647 -36.04052734 100.82104492 C-42.72136821 97.37686324 -49.48506468 95.10225245 -56.6875 93 C-59.00156547 92.30295714 -61.31536954 91.60504585 -63.62890625 90.90625 C-65.75250588 90.27050493 -67.8761938 89.63505466 -70 89 C-88.59325683 83.43600853 -106.94891272 76.1627614 -117.5625 58.96875 C-121.28787124 51.27504853 -122.48157687 44.59457072 -122.375 36.0625 C-122.38660156 35.13759766 -122.39820313 34.21269531 -122.41015625 33.25976562 C-122.35788691 20.82837415 -117.99501478 9.894267 -109.8125 0.484375 C-80.66962213 -27.69985557 -31.43443104 -19.47473467 0 0 Z " fill="#FFFFFF" transform="translate(1546,132)"/>
<path d="M0 0 C36.96 0 73.92 0 112 0 C112 11.55 112 23.1 112 35 C88.24 35 64.48 35 40 35 C40 46.88 40 58.76 40 71 C62.11 71 84.22 71 107 71 C107 82.22 107 93.44 107 105 C84.89 105 62.78 105 40 105 C40 116.88 40 128.76 40 141 C64.42 141 88.84 141 114 141 C114 152.88 114 164.76 114 177 C76.38 177 38.76 177 0 177 C0 118.59 0 60.18 0 0 Z " fill="#FFFFFF" transform="translate(1287,118)"/>
<path d="M0 0 C1.05832031 0.36222656 2.11664062 0.72445313 3.20703125 1.09765625 C18.51104462 6.8931427 34.53746365 18.76517805 43 33 C41.8362632 36.49121041 40.94674297 37.04280542 38.02734375 39.14453125 C37.20943359 39.73943359 36.39152344 40.33433594 35.54882812 40.94726562 C34.68708984 41.56279297 33.82535156 42.17832031 32.9375 42.8125 C31.2589035 44.02705207 29.58051611 45.2418932 27.90234375 46.45703125 C27.08491699 47.04564941 26.26749023 47.63426758 25.42529297 48.24072266 C21.91816392 50.78475043 18.4549634 53.38574235 15 56 C11.33433468 54.31788903 9.74348787 52.60318633 7.375 49.3125 C0.90769493 41.02813324 -7.60158564 35.1172675 -18 33 C-32.11520204 31.4515969 -45.33523581 33.34243017 -56.85546875 42.1640625 C-68.41726455 52.06213905 -73.45339014 66.40790251 -74.8125 81.25 C-75.65740923 98.57063928 -71.6911157 115.46505428 -60 128.6875 C-50.86670956 137.13979948 -39.23138498 140.72674565 -27 141 C-13.49165923 140.22766213 -2.34032552 135.75366424 7.01171875 125.875 C8.18995584 124.53126629 9.35242786 123.1733963 10.4921875 121.796875 C11.91768896 120.09809087 13.42301685 118.55671626 15 117 C34.42601729 132.06326022 34.42601729 132.06326022 43 139 C37.78079779 153.90818271 22.61914831 163.71902727 9.03320312 170.36816406 C-12.72923377 180.47290212 -39.17790672 181.14681851 -61.73217773 173.10058594 C-84.41916142 164.40386009 -100.35126001 147.92110917 -110.17919922 125.93994141 C-112.23942039 121.07066198 -113.74567969 116.12950991 -115 111 C-115.22429688 110.13246094 -115.44859375 109.26492188 -115.6796875 108.37109375 C-121.14534296 82.65256431 -116.07325658 55.53918788 -102.6875 33.1875 C-90.27947556 14.79605044 -71.72107968 1.98813438 -50.08154297 -2.96801758 C-33.72828968 -6.04417118 -15.72336356 -5.56983262 0 0 Z " fill="#FFFFFF" transform="translate(1092,341)"/>
<path d="M0 0 C44.55 0 89.1 0 135 0 C135 11.55 135 23.1 135 35 C119.49 35 103.98 35 88 35 C88 81.86 88 128.72 88 177 C74.8 177 61.6 177 48 177 C48 130.14 48 83.28 48 35 C32.16 35 16.32 35 0 35 C0 23.45 0 11.9 0 0 Z " fill="#FFFFFF" transform="translate(827,118)"/>
<path d="M0 0 C13.2 0 26.4 0 40 0 C40 46.53 40 93.06 40 141 C62.44 141 84.88 141 108 141 C108 152.55 108 164.1 108 176 C72.36 176 36.72 176 0 176 C0 117.92 0 59.84 0 0 Z " fill="#FFFFFF" transform="translate(1732,340)"/>
<path d="M0 0 C13.2 0 26.4 0 40 0 C40 58.41 40 116.82 40 177 C26.8 177 13.6 177 0 177 C0 118.59 0 60.18 0 0 Z " fill="#FFFFFF" transform="translate(985,118)"/>
<path d="M0 0 C2.26064969 1.48872052 4.45664206 2.98661474 6.5625 4.6875 C7.03300781 4.33816406 7.50351563 3.98882813 7.98828125 3.62890625 C8.61089844 3.17386719 9.23351563 2.71882812 9.875 2.25 C10.48988281 1.79753906 11.10476563 1.34507812 11.73828125 0.87890625 C16.73808172 -2.38648806 22.83457581 -1.83860947 28.5625 -1.3125 C32.71982895 -0.04280966 35.07331845 1.92111557 37.4375 5.625 C39.46043455 11.13187739 39.69964935 16.22279358 39.66015625 22.05078125 C39.6587413 22.84276413 39.65732635 23.63474701 39.65586853 24.45072937 C39.65029457 26.96719219 39.63774693 29.48356431 39.625 32 C39.61998163 33.71158725 39.61541931 35.42317591 39.61132812 37.13476562 C39.60033368 41.31904508 39.58308707 45.50325719 39.5625 49.6875 C36.9225 49.6875 34.2825 49.6875 31.5625 49.6875 C31.532771 48.24298462 31.532771 48.24298462 31.50244141 46.76928711 C31.42592821 43.17024151 31.33728439 39.57157631 31.24511719 35.97290039 C31.20701516 34.42024284 31.17213072 32.86750267 31.140625 31.31469727 C31.09456315 29.07278053 31.03664122 26.83142355 30.9765625 24.58984375 C30.96501129 23.90413803 30.95346008 23.21843231 30.94155884 22.51194763 C30.80214042 17.87987127 30.07206384 14.03220702 28.5625 9.6875 C25.74418528 7.19437544 22.27360978 7.26515344 18.59375 7.375 C15.12194529 7.9091238 13.13013028 9.36440593 10.5625 11.6875 C8.61979139 16.25215683 8.26677556 20.34268498 8.1484375 25.2734375 C8.12907135 25.97522125 8.1097052 26.677005 8.0897522 27.40005493 C8.03042431 29.62074999 7.98376083 31.84149823 7.9375 34.0625 C7.89927698 35.57684434 7.86022278 37.09116794 7.8203125 38.60546875 C7.72476266 42.29928831 7.64056063 45.9932647 7.5625 49.6875 C4.9225 49.6875 2.2825 49.6875 -0.4375 49.6875 C-0.44160889 48.59284424 -0.44571777 47.49818848 -0.44995117 46.37036133 C-0.47177052 42.29778355 -0.52608831 38.22616809 -0.59008789 34.15405273 C-0.61324364 32.39373009 -0.62765794 30.63326939 -0.63305664 28.87280273 C-0.64236442 26.33750621 -0.68339048 23.80437372 -0.73046875 21.26953125 C-0.7265361 20.48600784 -0.72260345 19.70248444 -0.71855164 18.8952179 C-0.83097269 14.65782883 -1.09349302 13.11468344 -3.8527832 9.68823242 C-7.11077242 7.16634505 -8.56905083 7.05378801 -12.51171875 7.3359375 C-15.44275951 7.87101594 -17.17326507 8.7467272 -19.4375 10.6875 C-22.23920091 15.27814641 -22.90042078 19.21623815 -22.94921875 24.4921875 C-22.96716995 25.2161673 -22.98512115 25.94014709 -23.00361633 26.68606567 C-23.05741138 28.97815277 -23.09151402 31.27003541 -23.125 33.5625 C-23.15820049 35.12502827 -23.19269266 36.68752966 -23.22851562 38.25 C-23.31311923 42.06235169 -23.38007559 45.874646 -23.4375 49.6875 C-26.0775 49.6875 -28.7175 49.6875 -31.4375 49.6875 C-31.4375 33.1875 -31.4375 16.6875 -31.4375 -0.3125 C-29.1275 -0.3125 -26.8175 -0.3125 -24.4375 -0.3125 C-23.7775 0.6775 -23.1175 1.6675 -22.4375 2.6875 C-21.344375 2.0275 -20.25125 1.3675 -19.125 0.6875 C-12.90987794 -2.41454138 -6.44696803 -2.46156961 0 0 Z " fill="#FFFFFF" transform="translate(1400.4375,599.3125)"/>
<path d="M0 0 C4.19046588 3.57574878 6.96968352 7.53932266 8 13 C8 16.96 8 20.92 8 25 C-4.87 25 -17.74 25 -31 25 C-26.99686362 33.29345329 -26.99686362 33.29345329 -20 38 C-13.72008618 38.53358745 -8.38507057 38.63492264 -3 35 C-1.18445841 33.43897509 -1.18445841 33.43897509 0 32 C4.75 33.875 4.75 33.875 7 35 C5.68228785 39.18818779 4.27273352 40.93491176 0.5625 43.25 C-0.21996094 43.75015625 -1.00242187 44.2503125 -1.80859375 44.765625 C-8.33628546 48.44254226 -17.60598657 48.02588781 -24.77734375 46.3515625 C-30.97604456 43.87208217 -35.30251294 39.65108621 -38.11328125 33.60546875 C-40.91969656 25.35930571 -40.55170572 16.80806657 -37.06640625 8.875 C-33.80176931 2.9105422 -28.53751677 -1.53801031 -22.01171875 -3.640625 C-14.10911349 -5.05235254 -6.96204121 -4.09320009 0 0 Z M-28.4375 11 C-30.18070401 14.06255318 -30.18070401 14.06255318 -31 18 C-20.77 18 -10.54 18 0 18 C-1.02129457 11.53932751 -1.02129457 11.53932751 -5 7 C-13.8627385 2.24038117 -21.98610637 3.05982323 -28.4375 11 Z " fill="#FFFFFF" transform="translate(1491,602)"/>
<path d="M0 0 C6.26735883 5.2287005 9.37608862 11.42873499 10.27734375 19.4765625 C10.57021765 27.04442403 9.02586619 33.74053581 4.375 39.8125 C-1.32536603 45.7763866 -7.31762328 47.25145634 -15.4375 47.5625 C-23.29085068 47.31855825 -29.1827953 45.73751357 -34.87109375 40.16796875 C-39.92371464 34.02485414 -41.54920711 27.29116206 -41.3046875 19.42578125 C-40.44830986 12.6076977 -38.33316592 6.74295403 -33.25 2 C-23.31908428 -5.62650434 -10.8815471 -6.58083342 0 0 Z M-29.4375 10.5625 C-32.88753336 15.94455204 -32.6898503 21.80702568 -32 28 C-30.37686043 32.40766349 -28.08802225 35.17103067 -24.375 38 C-18.35869612 39.78260856 -11.82326109 40.31788055 -6.0625 37.4375 C-1.46716558 33.77998893 0.66255973 30.85673867 1.34375 25.08984375 C1.51255424 19.41380103 1.45737751 14.72508259 -2 10 C-4.88572369 7.04152698 -7.75085802 4.38628563 -12 4 C-13.0725 3.896875 -14.145 3.79375 -15.25 3.6875 C-21.16722488 4.18060207 -25.34961949 6.26498459 -29.4375 10.5625 Z " fill="#FFFFFF" transform="translate(1167,602)"/>
<path d="M0 0 C4.85919722 4.60130686 7.42354309 10.01786651 8.1640625 16.640625 C8.36692865 25.89869858 7.87492575 32.83069857 1.5 39.75 C-3.11789492 44.37888991 -8.65787105 46.29194442 -15.14868164 46.40625 C-15.8214917 46.3959375 -16.49430176 46.385625 -17.1875 46.375 C-18.24408813 46.36146484 -18.24408813 46.36146484 -19.32202148 46.34765625 C-27.4422777 46.07676157 -31.65457034 43.87831321 -37.125 38.0625 C-42.62817113 31.74025224 -42.75560938 24.77005659 -42.62109375 16.70703125 C-41.99142197 10.31089161 -39.92953642 5.62264215 -35.3828125 1.06640625 C-24.83592148 -7.49011818 -11.16806244 -7.08742424 0 0 Z M-31.6875 9.9375 C-34.24976067 14.85704048 -34.97544017 19.37579205 -34.25 24.9375 C-32.47625381 30.25873856 -29.99359289 33.8167152 -25.25 36.9375 C-21.06388848 39.03055576 -15.80867052 38.36114608 -11.25 37.9375 C-6.30413474 35.64120541 -3.94239482 32.62426135 -1.25 27.9375 C0.48973368 22.71829895 0.21891181 18.39359457 -1.4375 13.25 C-3.79296424 8.94518604 -6.27625565 6.05773328 -10.5625 3.625 C-19.01051622 1.46387957 -26.12746649 3.09438184 -31.6875 9.9375 Z " fill="#FFFFFF" transform="translate(1613.25,603.0625)"/>
<path d="M0 0 C2.97 0 5.94 0 9 0 C13.14560855 8.6777851 17.11450249 17.42506348 20.9375 26.25 C21.3389624 27.16676514 21.7404248 28.08353027 22.15405273 29.02807617 C22.52473877 29.89021729 22.8954248 30.7523584 23.27734375 31.640625 C23.60984131 32.40922852 23.94233887 33.17783203 24.28491211 33.96972656 C25 36 25 36 25 39 C25.66 39 26.32 39 27 39 C27.15710449 38.36980957 27.31420898 37.73961914 27.47607422 37.09033203 C29.53767401 29.15725026 32.24504896 21.54380336 35.125 13.875 C35.58003906 12.64523437 36.03507812 11.41546875 36.50390625 10.1484375 C39.86341215 1.13658785 39.86341215 1.13658785 41 0 C43.67058851 -0.14115161 46.32432238 -0.04247107 49 0 C47.63801868 6.81337774 45.67092834 13.14929565 43.26171875 19.66015625 C42.717752 21.14412148 42.717752 21.14412148 42.16279602 22.6580658 C41.39836613 24.7374123 40.63091701 26.8156511 39.8605957 28.89282227 C38.69105172 32.05290334 37.53745144 35.21850251 36.38476562 38.38476562 C35.6363793 40.41441771 34.88706126 42.44372654 34.13671875 44.47265625 C33.79694504 45.40932632 33.45717133 46.3459964 33.10710144 47.31105042 C30.37563466 54.61064641 27.11530079 61.90391601 21 67 C17.74530985 68.08489672 15.29456791 68.13323992 11.875 68.125 C10.79992188 68.12757813 9.72484375 68.13015625 8.6171875 68.1328125 C6 68 6 68 5 67 C4.85884839 64.32941149 4.95752893 61.67567762 5 59 C6.19625 59.2475 7.3925 59.495 8.625 59.75 C12.13196703 60.18526186 13.00362601 59.99825414 16.375 58.375 C19.22135476 55.79972665 20.14195045 54.70001949 21 51 C20.18579708 48.2530075 19.30970869 45.92703688 18.125 43.34765625 C17.80345947 42.61107285 17.48191895 41.87448944 17.15063477 41.11558533 C16.11666713 38.75699447 15.05901216 36.40993675 14 34.0625 C13.31739303 32.51829207 12.63638714 30.97337534 11.95703125 29.42773438 C10.62283072 26.39806778 9.28162605 23.37168157 7.93359375 20.34814453 C6.10363293 16.23884908 4.28906671 12.12336375 2.5 7.99609375 C2.0153125 6.88290771 1.530625 5.76972168 1.03125 4.62280273 C0 2 0 2 0 0 Z " fill="#FFFFFF" transform="translate(1074,599)"/>
<path d="M0 0 C0.66 0.33 1.32 0.66 2 1 C1.48967606 4.77639718 0.79233071 6.44722581 -2 9 C-2.60585937 8.71125 -3.21171875 8.4225 -3.8359375 8.125 C-9.90889676 5.4342119 -15.33510761 3.94829221 -22 5 C-25.2243063 6.64137117 -25.2243063 6.64137117 -25.5 9.4375 C-25.26673865 12.16156102 -25.26673865 12.16156102 -22.93359375 13.5390625 C-18.39524885 15.79917034 -13.60798396 16.6937999 -8.69140625 17.83984375 C-3.79614827 19.3783534 0.79514355 21.8825023 4 26 C5.35127956 30.41303956 5.17357875 34.30568501 4.0625 38.75 C0.7987376 43.89289832 -2.82275321 46.27402824 -8.76953125 47.6328125 C-17.36157929 48.6913348 -26.2431175 47.56404359 -33.75 43 C-34.4925 42.34 -35.235 41.68 -36 41 C-36 37.48283697 -35.17554415 36.62878252 -33 34 C-27 36 -27 36 -24.84375 36.80078125 C-18.68138086 39.02725366 -13.82451733 40.23251665 -7.5625 37.5 C-6.716875 37.005 -5.87125 36.51 -5 36 C-5 34.02 -5 32.04 -5 30 C-9.27569679 27.93850334 -13.45802127 26.11571157 -18.01953125 24.796875 C-18.7259375 24.59151123 -19.43234375 24.38614746 -20.16015625 24.17456055 C-21.57382315 23.77255704 -22.99183784 23.38548388 -24.4140625 23.01489258 C-29.10452139 21.67777026 -31.46759163 20.18316346 -34 16 C-35.48459378 11.62354126 -35.59340679 7.38470737 -33.5625 3.1875 C-25.86898865 -7.98888473 -10.50571883 -5.30613385 0 0 Z " fill="#FFFFFF" transform="translate(1750,602)"/>
<path d="M0 0 C0.66 0.33 1.32 0.66 2 1 C1.45276317 4.37462715 0.9451 6.08235 -1 9 C-1.70125 8.71125 -2.4025 8.4225 -3.125 8.125 C-4.07375 7.75375 -5.0225 7.3825 -6 7 C-6.886875 6.62875 -7.77375 6.2575 -8.6875 5.875 C-13.16170263 4.69313515 -17.40505267 4.3233468 -22 5 C-24.63516042 6.79191458 -24.63516042 6.79191458 -26 9 C-25.55966008 10.98020421 -25.55966008 10.98020421 -24 13 C-20.31236995 14.66987021 -16.68793408 15.80727791 -12.79296875 16.8984375 C-0.97275641 20.27564103 -0.97275641 20.27564103 3 25 C4.90637232 29.08878046 5.11665581 32.23525635 4.4375 36.6875 C2.46073617 41.24265143 0.42981799 43.84973754 -4.12890625 46.0078125 C-13.67255222 49.40859806 -22.72260223 47.93918301 -31.94140625 44.23046875 C-34.30882204 42.81540998 -35.4978514 41.28921688 -37 39 C-35.02 36.525 -35.02 36.525 -33 34 C-27 36 -27 36 -24.94921875 36.8359375 C-19.22683151 39.05171089 -13.99229795 39.70899472 -8 38 C-6.17335192 36.73638293 -6.17335192 36.73638293 -5 35 C-4.74951364 31.87450983 -4.74951364 31.87450983 -5 29 C-9.14948652 27.56914258 -13.25492304 26.1943679 -17.50390625 25.0859375 C-29.56768559 21.93886463 -29.56768559 21.93886463 -34 17 C-35.56311512 12.31065463 -35.52321579 8.48244475 -33.875 3.8125 C-25.9905518 -8.0141723 -11.08767363 -4.94772533 0 0 Z " fill="#FFFFFF" transform="translate(1003,602)"/>
<path d="M0 0 C2.64 0 5.28 0 8 0 C8.01401855 1.59654419 8.01401855 1.59654419 8.02832031 3.2253418 C8.06828657 7.18604911 8.13406299 11.14598507 8.20751953 15.10620117 C8.23569086 16.8180142 8.25692452 18.52995637 8.27099609 20.24194336 C8.29247965 22.70753919 8.33915416 25.17158861 8.390625 27.63671875 C8.39185364 28.39836838 8.39308228 29.16001801 8.39434814 29.94474792 C8.49402673 33.58624908 8.89403105 35.82608643 10.80371094 38.96020508 C13.35507714 41.32977651 15.37665474 41.90758798 18.83984375 42.140625 C23.20234577 41.85662849 27.08175363 40.40017983 30.60546875 37.828125 C34.04572223 33.31821287 34.26795313 27.45175763 34.4140625 21.97265625 C34.45273438 20.68681641 34.49140625 19.40097656 34.53125 18.07617188 C34.56269499 16.73828582 34.59394259 15.40039511 34.625 14.0625 C34.66324342 12.69724244 34.7022987 11.33200736 34.7421875 9.96679688 C34.83609937 6.6446646 34.92177787 3.32253259 35 0 C37.64 0 40.28 0 43 0 C43 16.5 43 33 43 50 C40.69 50 38.38 50 36 50 C35.34 48.35 34.68 46.7 34 45 C33.55011719 45.34933594 33.10023437 45.69867187 32.63671875 46.05859375 C26.29589944 50.54418336 20.16905161 51.83887236 12.47265625 50.58984375 C6.91375563 49.04519083 4.18207449 46.77311173 1 42 C-0.3158809 38.0523573 -0.12300273 34.28910644 -0.09765625 30.17578125 C-0.09553383 28.88367989 -0.09553383 28.88367989 -0.09336853 27.56547546 C-0.0877714 24.81444831 -0.07521946 22.06350256 -0.0625 19.3125 C-0.05748463 17.4472668 -0.05292179 15.58203233 -0.04882812 13.71679688 C-0.03780292 9.14449989 -0.02054027 4.57226375 0 0 Z " fill="#FFFFFF" transform="translate(1660,599)"/>
<path d="M0 0 C2.64 0 5.28 0 8 0 C8.01401855 1.59654419 8.01401855 1.59654419 8.02832031 3.2253418 C8.06828657 7.18604911 8.13406299 11.14598507 8.20751953 15.10620117 C8.23569086 16.8180142 8.25692452 18.52995637 8.27099609 20.24194336 C8.29247965 22.70753919 8.33915416 25.17158861 8.390625 27.63671875 C8.39185364 28.39836838 8.39308228 29.16001801 8.39434814 29.94474792 C8.49402673 33.58624908 8.89403105 35.82608643 10.80371094 38.96020508 C13.35636028 41.33096823 15.37683372 41.91289617 18.84375 42.1328125 C24.00025916 41.81520143 27.79448552 40.20551448 31.4375 36.5625 C34.1339742 32.14028231 34.16402727 28.18422359 34.31640625 23.046875 C34.33718735 22.38665344 34.35796844 21.72643188 34.37937927 21.04620361 C34.44450147 18.94756985 34.50358502 16.84881628 34.5625 14.75 C34.60572079 13.32290453 34.6493362 11.89582095 34.69335938 10.46875 C34.80014411 6.97929278 34.90151566 3.48970247 35 0 C37.64 0 40.28 0 43 0 C43 16.5 43 33 43 50 C40.69 50 38.38 50 36 50 C35.34 48.35 34.68 46.7 34 45 C33.55011719 45.34933594 33.10023437 45.69867187 32.63671875 46.05859375 C26.29589944 50.54418336 20.16905161 51.83887236 12.47265625 50.58984375 C6.91375563 49.04519083 4.18207449 46.77311173 1 42 C-0.3158809 38.0523573 -0.12300273 34.28910644 -0.09765625 30.17578125 C-0.09553383 28.88367989 -0.09553383 28.88367989 -0.09336853 27.56547546 C-0.0877714 24.81444831 -0.07521946 22.06350256 -0.0625 19.3125 C-0.05748463 17.4472668 -0.05292179 15.58203233 -0.04882812 13.71679688 C-0.03780292 9.14449989 -0.02054027 4.57226375 0 0 Z " fill="#FFFFFF" transform="translate(1189,599)"/>
<path d="M0 0 C2.64 0 5.28 0 8 0 C8.01981934 0.90242432 8.03963867 1.80484863 8.06005859 2.73461914 C8.13855165 6.11003758 8.22525668 9.48504398 8.31738281 12.86010742 C8.35546427 14.31575518 8.390352 15.77149037 8.421875 17.22729492 C8.46798255 19.33023148 8.52589547 21.43257675 8.5859375 23.53515625 C8.6173584 24.797229 8.6487793 26.05930176 8.68115234 27.35961914 C9.0689369 31.78707357 9.81384112 36.02306853 12.125 39.875 C15.89759164 42.13855498 19.93135536 42.38529909 24.16015625 41.59765625 C29.36691999 39.95290284 31.26023908 37.85827271 34 33 C34.40201567 30.26751604 34.60452681 27.9214675 34.609375 25.1953125 C34.62591125 24.4713327 34.64244751 23.74735291 34.65948486 23.00143433 C34.70772545 20.70920123 34.72928056 18.41763024 34.75 16.125 C34.77818001 14.56246712 34.80811027 12.99996476 34.83984375 11.4375 C34.91347678 7.6250546 34.96319648 3.81297157 35 0 C37.64 0 40.28 0 43 0 C43 16.5 43 33 43 50 C41.02 50 39.04 50 37 50 C36.34 48.35 35.68 46.7 35 45 C34.55011719 45.34933594 34.10023438 45.69867187 33.63671875 46.05859375 C27.97175991 50.06606965 22.93314735 51.34468772 16 51 C10.67371176 50.00132096 6.36112623 48.43668662 3 44 C-0.42554905 38.59123834 -0.14255158 32.17632277 -0.09765625 25.9765625 C-0.0962413 25.23038666 -0.09482635 24.48421082 -0.09336853 23.71542358 C-0.08780874 21.35190682 -0.07526389 18.98848773 -0.0625 16.625 C-0.0574798 15.01432429 -0.0529178 13.40364709 -0.04882812 11.79296875 C-0.03785251 7.86194201 -0.02061596 3.93098752 0 0 Z " fill="#FFFFFF" transform="translate(912,599)"/>
<path d="M0 0 C15.84 0 31.68 0 48 0 C48 2.64 48 5.28 48 8 C41.4 8 34.8 8 28 8 C28 27.47 28 46.94 28 67 C25.36 67 22.72 67 20 67 C20 47.53 20 28.06 20 8 C13.4 8 6.8 8 0 8 C0 5.36 0 2.72 0 0 Z " fill="#FFFFFF" transform="translate(828,582)"/>
<path d="M0 0 C0 4.29 0 8.58 0 13 C5.61 13 11.22 13 17 13 C17 15.31 17 17.62 17 20 C11.39 20 5.78 20 0 20 C0.096956 24.36046831 0.19969259 28.71998999 0.31738281 33.07983398 C0.35565347 34.56282212 0.39050978 36.04590248 0.421875 37.52905273 C0.467568 39.66163072 0.52555338 41.79357491 0.5859375 43.92578125 C0.6173584 45.20880127 0.6487793 46.49182129 0.68115234 47.8137207 C0.76379228 51.15387459 0.76379228 51.15387459 3 54 C5.62697064 54.22137393 8.00893964 54.28162025 10.625 54.1875 C11.33140625 54.17396484 12.0378125 54.16042969 12.765625 54.14648438 C14.51074128 54.1111104 16.25546608 54.05730221 18 54 C18 56.64 18 59.28 18 62 C11.46284741 63.97709005 3.85068216 63.88469446 -2.625 61.875 C-5.63729215 59.49687462 -6.55913447 57.55966459 -8 54 C-8.24713645 51.24092972 -8.35266646 48.72452075 -8.29296875 45.9765625 C-8.28872391 45.23038666 -8.28447906 44.48421082 -8.28010559 43.71542358 C-8.26342382 41.35156902 -8.22579339 38.98859324 -8.1875 36.625 C-8.17243949 35.0143353 -8.15875348 33.40365713 -8.14648438 31.79296875 C-8.11355504 27.86164485 -8.06184762 23.93097099 -8 20 C-10.31 20 -12.62 20 -15 20 C-15 18.02 -15 16.04 -15 14 C-11.535 13.505 -11.535 13.505 -8 13 C-8 9.04 -8 5.08 -8 1 C-2.25 0 -2.25 0 0 0 Z " fill="#FFFFFF" transform="translate(1547,586)"/>
<path d="M0 0 C0 4.29 0 8.58 0 13 C5.61 13 11.22 13 17 13 C17 15.31 17 17.62 17 20 C11.39 20 5.78 20 0 20 C0.096956 24.36046831 0.19969259 28.71998999 0.31738281 33.07983398 C0.35565347 34.56282212 0.39050978 36.04590248 0.421875 37.52905273 C0.467568 39.66163072 0.52555338 41.79357491 0.5859375 43.92578125 C0.6173584 45.20880127 0.6487793 46.49182129 0.68115234 47.8137207 C0.76379228 51.15387459 0.76379228 51.15387459 3 54 C5.62697064 54.22137393 8.00893964 54.28162025 10.625 54.1875 C11.33140625 54.17396484 12.0378125 54.16042969 12.765625 54.14648438 C14.51074128 54.1111104 16.25546608 54.05730221 18 54 C18 56.64 18 59.28 18 62 C11.46284741 63.97709005 3.85068216 63.88469446 -2.625 61.875 C-5.63729215 59.49687462 -6.55913447 57.55966459 -8 54 C-8.24713645 51.24092972 -8.35266646 48.72452075 -8.29296875 45.9765625 C-8.28872391 45.23038666 -8.28447906 44.48421082 -8.28010559 43.71542358 C-8.26342382 41.35156902 -8.22579339 38.98859324 -8.1875 36.625 C-8.17243949 35.0143353 -8.15875348 33.40365713 -8.14648438 31.79296875 C-8.11355504 27.86164485 -8.06184762 23.93097099 -8 20 C-10.31 20 -12.62 20 -15 20 C-15 18.02 -15 16.04 -15 14 C-11.535 13.505 -11.535 13.505 -8 13 C-8 9.04 -8 5.08 -8 1 C-2.25 0 -2.25 0 0 0 Z " fill="#FFFFFF" transform="translate(1027,586)"/>
<path d="M0 0 C0 4.29 0 8.58 0 13 C5.61 13 11.22 13 17 13 C17 15.31 17 17.62 17 20 C11.39 20 5.78 20 0 20 C0.0970745 24.19974926 0.19988469 28.39854303 0.31738281 32.59765625 C0.35560024 34.02530398 0.39046572 35.45304563 0.421875 36.88085938 C0.46768401 38.93653868 0.5256498 40.99157554 0.5859375 43.046875 C0.6173584 44.28276367 0.6487793 45.51865234 0.68115234 46.79199219 C0.83342966 50.26112366 0.83342966 50.26112366 3 54 C7.95 54 12.9 54 18 54 C18 56.64 18 59.28 18 62 C11.45920501 63.97819166 3.88168098 63.84463063 -2.625 61.9375 C-5.67819419 59.44673632 -6.87397629 56.68910227 -8 53 C-8.24244192 50.27787258 -8.35412353 47.80590802 -8.29296875 45.09765625 C-8.28872391 44.3750914 -8.28447906 43.65252655 -8.28010559 42.9080658 C-8.26346418 40.62581307 -8.22584248 38.34448067 -8.1875 36.0625 C-8.17243423 34.50457015 -8.15874916 32.9466263 -8.14648438 31.38867188 C-8.11360882 27.59209943 -8.0619309 23.79620513 -8 20 C-9.98 20 -11.96 20 -14 20 C-14 18.02 -14 16.04 -14 14 C-12.02 13.67 -10.04 13.34 -8 13 C-8 9.04 -8 5.08 -8 1 C-2.25 0 -2.25 0 0 0 Z " fill="#FFFFFF" transform="translate(1317,586)"/>
<path d="M0 0 C1.98 0 3.96 0 6 0 C6.33 1.65 6.66 3.3 7 5 C7.928125 4.360625 8.85625 3.72125 9.8125 3.0625 C13.48729243 0.68469313 15.90428551 -0.13271663 20.1875 -0.0625 C22.0746875 -0.0315625 22.0746875 -0.0315625 24 0 C24 2.64 24 5.28 24 8 C23.40832031 8.08636719 22.81664062 8.17273438 22.20703125 8.26171875 C16.65855945 9.24831488 13.65250778 10.43436527 10 15 C8.50016915 17.9996617 8.76097945 21.11946961 8.68359375 24.4140625 C8.66281265 25.14370209 8.64203156 25.87334167 8.62062073 26.62509155 C8.55518083 28.95829763 8.49626632 31.29161721 8.4375 33.625 C8.39430947 35.20574095 8.35069501 36.78647039 8.30664062 38.3671875 C8.19950519 42.24467504 8.09822218 46.12227685 8 50 C5.36 50 2.72 50 0 50 C0 33.5 0 17 0 0 Z " fill="#FFFFFF" transform="translate(1248,599)"/>
<path d="M0 0 C2.31 0 4.62 0 7 0 C7 1.65 7 3.3 7 5 C7.556875 4.6390625 8.11375 4.278125 8.6875 3.90625 C14.14096482 0.58995383 17.62961443 -0.57912596 24 0 C24 2.64 24 5.28 24 8 C23.40832031 8.08636719 22.81664062 8.17273438 22.20703125 8.26171875 C16.67794944 9.24486707 13.59167862 10.39816177 10 15 C8.84160957 18.47517129 8.77198782 21.6727002 8.68359375 25.29296875 C8.66281265 25.99899734 8.64203156 26.70502594 8.62062073 27.43244934 C8.55532509 29.68403551 8.49633353 31.93573662 8.4375 34.1875 C8.39429575 35.7155066 8.35068084 37.24350164 8.30664062 38.77148438 C8.19966426 42.51420562 8.09834078 46.2570423 8 50 C5.36 50 2.72 50 0 50 C0 33.5 0 17 0 0 Z " fill="#FFFFFF" transform="translate(879,599)"/>
<path d="M0 0 C2.64 0 5.28 0 8 0 C8 16.5 8 33 8 50 C5.36 50 2.72 50 0 50 C0 33.5 0 17 0 0 Z " fill="#FFFFFF" transform="translate(1345,599)"/>
<path d="M0 0 C3 0.25 3 0.25 5 2.25 C5.25 5.25 5.25 5.25 5 8.25 C3 10.25 3 10.25 0 10.5 C-3 10.25 -3 10.25 -5 8.25 C-5.25 5.25 -5.25 5.25 -5 2.25 C-3 0.25 -3 0.25 0 0 Z " fill="#FFFFFF" transform="translate(1349,579.75)"/>
</svg>
